<?xml version="1.0" standalone="no"?>
<!DOCTYPE svg PUBLIC "-//W3C//DTD SVG 20010904//EN"
 "http://www.w3.org/TR/2001/REC-SVG-20010904/DTD/svg10.dtd">
<svg version="1.0" xmlns="http://www.w3.org/2000/svg"
 width="" height="" viewBox="0 0 853.000000 480.000000"
 preserveAspectRatio="xMidYMid meet">

<g transform="translate(0.000000,480.000000) scale(0.100000,-0.100000)"
fill="orange" stroke="none">
<path d="M2170 3782 c-8 -2 -23 -11 -32 -20 -17 -14 -18 -52 -18 -524 0 -495
1 -509 20 -528 29 -29 74 -26 99 6 20 25 21 39 21 240 l0 214 432 0 433 0 512
-342 c443 -294 511 -343 495 -353 -9 -6 -240 -145 -512 -308 l-495 -297 -313
0 -312 0 0 199 c0 202 -7 254 -38 266 -9 4 -42 9 -73 11 l-56 4 -409 -244
c-225 -135 -421 -255 -435 -269 -30 -26 -30 -64 0 -90 9 -8 204 -119 435 -247
380 -211 423 -232 475 -236 49 -5 59 -2 76 16 18 20 20 40 23 236 l3 213 333
3 332 3 556 333 556 334 498 -334 499 -333 338 -3 337 -3 0 -212 c0 -254 -1
-251 92 -261 l63 -6 420 251 c231 139 428 259 438 267 22 19 22 54 -1 81 -16
19 -775 446 -849 477 -17 8 -53 15 -79 16 -38 1 -51 -3 -66 -21 -16 -21 -18
-44 -18 -237 l0 -214 -315 0 -315 0 -455 304 c-335 222 -452 306 -443 313 7 6
266 161 575 346 l561 337 436 0 436 0 0 -219 c0 -244 2 -251 65 -251 67 0 65
-13 65 540 0 432 -2 498 -16 518 -18 26 -59 29 -92 6 -22 -15 -22 -19 -22
-234 l0 -219 -457 -3 -458 -3 -612 -367 c-336 -203 -616 -368 -622 -368 -6 0
-259 165 -562 368 l-552 367 -453 3 -454 3 0 210 c0 118 -4 218 -10 229 -11
20 -58 39 -80 32z m188 -2171 l-3 -199 -336 187 c-184 102 -335 191 -335 196
-1 6 150 101 335 212 l336 201 3 -199 c1 -109 1 -289 0 -398z m4066 392 c144
-80 281 -156 304 -170 l44 -25 -334 -200 c-183 -110 -339 -203 -345 -205 -10
-4 -13 78 -13 391 l0 396 42 -21 c22 -11 159 -86 302 -166z"/>
<path d="M6794 3507 c-2 -7 -3 -85 -2 -172 l3 -160 28 -3 27 -3 0 71 0 71 32
-3 c28 -3 36 -11 67 -70 31 -58 40 -68 64 -68 15 0 27 4 27 8 0 4 -16 37 -35
73 l-35 66 25 23 c52 49 40 130 -25 162 -43 22 -168 25 -176 5z m161 -57 c20
-16 19 -49 -2 -72 -11 -12 -30 -18 -60 -18 l-43 0 0 56 0 57 45 -5 c25 -3 52
-11 60 -18z"/>
<path d="M7141 3503 c-60 -31 -76 -64 -76 -151 0 -63 4 -84 23 -113 42 -69
145 -86 215 -37 26 19 28 24 25 86 l-3 67 -65 0 c-59 0 -65 -2 -68 -22 -3 -19
2 -22 35 -25 35 -3 38 -6 41 -36 3 -27 -1 -34 -22 -42 -41 -15 -86 -1 -108 34
-27 43 -22 147 9 178 31 31 81 28 107 -5 14 -17 31 -27 49 -27 26 0 27 1 14
32 -26 65 -112 95 -176 61z"/>
<path d="M7380 3345 l0 -175 70 0 c78 0 133 18 149 48 18 34 13 97 -9 117 -17
16 -18 20 -6 34 23 27 27 58 12 95 -17 41 -57 56 -153 56 l-63 0 0 -175z m148
109 c44 -30 15 -74 -49 -74 l-39 0 0 45 c0 44 1 45 33 45 18 0 43 -7 55 -16z
m12 -144 c40 -40 16 -80 -53 -87 l-47 -6 0 57 0 56 40 0 c27 0 47 -7 60 -20z"/>
<path d="M950 3320 l0 -190 30 0 30 0 0 80 0 80 85 0 85 0 0 -80 0 -80 30 0
30 0 0 190 0 190 -30 0 -30 0 0 -80 0 -80 -85 0 -85 0 0 80 0 80 -30 0 -30 0
0 -190z"/>
<path d="M1310 3320 l0 -190 120 0 120 0 0 30 0 30 -90 0 -90 0 0 50 0 49 78
3 c76 3 77 3 80 31 l3 27 -80 0 -81 0 0 50 0 50 90 0 90 0 0 30 0 30 -120 0
-120 0 0 -190z"/>
<path d="M1620 3415 l60 -94 -53 -83 c-29 -46 -57 -89 -61 -95 -5 -10 3 -13
31 -13 36 0 40 4 79 67 l42 67 42 -67 c39 -61 45 -67 76 -67 19 0 34 3 34 6 0
4 -25 45 -55 93 -30 48 -55 90 -55 94 0 3 25 45 55 92 30 46 55 87 55 90 0 3
-16 5 -35 5 -32 0 -38 -5 -76 -65 l-41 -66 -42 66 c-38 61 -43 65 -78 65 l-37
0 59 -95z"/>
<path d="M470 1880 l0 -190 30 0 30 0 0 80 0 80 85 0 85 0 0 -80 0 -80 30 0
30 0 0 190 0 190 -30 0 -30 0 0 -80 0 -80 -85 0 -85 0 0 80 0 80 -30 0 -30 0
0 -190z"/>
<path d="M830 1880 l0 -190 120 0 120 0 0 30 0 30 -90 0 -90 0 0 50 0 49 78 3
c76 3 77 3 80 31 l3 27 -80 0 -81 0 0 50 0 50 90 0 90 0 0 30 0 30 -120 0
-120 0 0 -190z"/>
<path d="M1090 2065 c0 -3 25 -45 56 -95 l56 -90 -61 -95 -61 -95 39 0 c37 0
40 3 77 65 22 35 41 65 44 65 3 0 23 -29 45 -65 37 -62 41 -65 77 -65 l38 0
-25 40 c-14 22 -41 65 -61 96 l-36 56 56 88 c31 48 56 90 56 94 0 3 -15 6 -34
6 -31 0 -38 -5 -71 -60 -20 -33 -40 -60 -44 -60 -5 0 -25 27 -45 60 -34 55
-40 60 -72 60 -19 0 -34 -2 -34 -5z"/>
<path d="M7210 1881 l0 -181 30 0 30 0 0 70 0 70 34 0 c32 0 37 -4 72 -70 36
-65 40 -70 72 -70 l34 0 -42 76 -41 75 25 24 c48 45 45 120 -7 159 -23 17 -46
22 -118 24 l-89 4 0 -181z m174 103 c38 -38 4 -84 -65 -87 l-44 -2 -3 53 -3
52 50 0 c32 0 55 -6 65 -16z"/>
<path d="M7595 2053 c-65 -18 -95 -71 -95 -170 0 -77 19 -125 63 -157 40 -29
135 -29 174 0 25 19 28 28 31 93 l3 71 -71 0 c-68 0 -70 -1 -70 -25 0 -23 4
-25 41 -25 l40 0 -3 -37 c-3 -35 -6 -38 -37 -41 -81 -8 -111 27 -111 126 0 78
24 112 80 112 32 0 44 -6 62 -30 23 -32 68 -42 68 -15 0 25 -22 64 -46 80 -26
17 -97 27 -129 18z"/>
<path d="M7830 1879 l0 -181 96 4 c94 4 97 5 125 36 19 21 29 43 29 63 0 31
-15 69 -33 80 -6 4 -3 16 7 30 18 27 21 71 5 101 -17 31 -71 48 -154 48 l-75
0 0 -181z m168 109 c33 -33 1 -71 -61 -72 l-42 -1 -3 43 -3 42 48 0 c27 0 54
-5 61 -12z m6 -144 c20 -19 21 -58 1 -74 -8 -6 -36 -12 -62 -13 l-48 -2 -3 53
-3 52 50 0 c32 0 55 -6 65 -16z"/>
</g>
</svg>
